<svg width="24" height="24" viewBox="0 0 36 36" fill="none" xmlns="http://www.w3.org/2000/svg">
<path fill-rule="evenodd" clip-rule="evenodd" d="M18.0005 1.875C11.5802 1.875 6.37555 7.07969 6.37555 13.5V14.5562C6.37555 15.6015 6.06611 16.6235 5.48624 17.4933L3.76333 20.0777C1.76369 23.0772 3.29025 27.1542 6.76814 28.1027C7.90156 28.4118 9.04455 28.6733 10.1942 28.8871L10.197 28.8948C11.3505 31.9726 14.4335 34.125 18.0005 34.125C21.5674 34.125 24.6504 31.9726 25.8039 28.8948L25.8067 28.8872C26.9564 28.6733 28.0995 28.4118 29.233 28.1027C32.7108 27.1542 34.2374 23.0772 32.2378 20.0777L30.5149 17.4933C29.935 16.6235 29.6255 15.6015 29.6255 14.5562V13.5C29.6255 7.07969 24.4209 1.875 18.0005 1.875ZM23.0652 29.3055C19.7007 29.7074 16.3002 29.7074 12.9357 29.3054C14.0022 30.8377 15.857 31.875 18.0005 31.875C20.1439 31.875 21.9987 30.8377 23.0652 29.3055ZM8.62555 13.5C8.62555 8.32233 12.8229 4.125 18.0005 4.125C23.1782 4.125 27.3755 8.32233 27.3755 13.5V14.5562C27.3755 16.0457 27.8165 17.502 28.6427 18.7414L30.3657 21.3258C31.5134 23.0474 30.6372 25.3876 28.6409 25.932C21.6746 27.8319 14.3265 27.8319 7.36015 25.932C5.36391 25.3876 4.48769 23.0474 5.63545 21.3258L7.35835 18.7414C8.18463 17.502 8.62555 16.0457 8.62555 14.5562V13.5Z" fill="#877EFF"/>
</svg>
