<svg width="20" height="20" viewBox="0 0 20 20" fill="none" xmlns="http://www.w3.org/2000/svg">
<path fill-rule="evenodd" clip-rule="evenodd" d="M9.99979 1.0415C7.81366 1.0415 6.04145 2.81371 6.04145 4.99984C6.04145 7.18596 7.81366 8.95817 9.99979 8.95817C12.1859 8.95817 13.9581 7.18596 13.9581 4.99984C13.9581 2.81371 12.1859 1.0415 9.99979 1.0415ZM7.29145 4.99984C7.29145 3.50407 8.50402 2.2915 9.99979 2.2915C11.4956 2.2915 12.7081 3.50407 12.7081 4.99984C12.7081 6.49561 11.4956 7.70817 9.99979 7.70817C8.50402 7.70817 7.29145 6.49561 7.29145 4.99984Z" fill="#877EFF"/>
<path fill-rule="evenodd" clip-rule="evenodd" d="M9.99979 10.2082C8.07183 10.2082 6.29556 10.6464 4.97933 11.3868C3.68269 12.1161 2.70812 13.2216 2.70812 14.5832L2.70806 14.6681C2.70712 15.6363 2.70594 16.8515 3.7718 17.7195C4.29635 18.1466 5.03018 18.4504 6.02163 18.6511C7.01584 18.8523 8.31164 18.9582 9.99979 18.9582C11.6879 18.9582 12.9837 18.8523 13.9779 18.6511C14.9694 18.4504 15.7032 18.1466 16.2278 17.7195C17.2936 16.8515 17.2925 15.6363 17.2915 14.6681L17.2915 14.5832C17.2915 13.2216 16.3169 12.1161 15.0202 11.3868C13.704 10.6464 11.9277 10.2082 9.99979 10.2082ZM3.95812 14.5832C3.95812 13.8737 4.47593 13.1041 5.59215 12.4763C6.68878 11.8594 8.24585 11.4582 9.99979 11.4582C11.7537 11.4582 13.3108 11.8594 14.4074 12.4763C15.5236 13.1041 16.0415 13.8737 16.0415 14.5832C16.0415 15.673 16.0079 16.2865 15.4385 16.7502C15.1297 17.0016 14.6135 17.2471 13.73 17.4259C12.8492 17.6042 11.645 17.7082 9.99979 17.7082C8.3546 17.7082 7.1504 17.6042 6.26961 17.4259C5.38606 17.2471 4.86989 17.0016 4.56111 16.7502C3.99172 16.2865 3.95812 15.673 3.95812 14.5832Z" fill="#877EFF"/>
</svg>
